REM DIRINDEX 1\2,1\4,1\3\5,1\3\6,1\3\7
REM DIRNAME folder01,folder02,folder03,folder04,folder05,folder06,folder07
TITLE ""
FILE "CD2Track23.mp3" MP3
  TRACK 01 AUDIO
    TITLE "0:"
    INDEX 01 00:00:00
  TRACK 02 AUDIO
    TITLE "4:cjc083_1907"
    INDEX 01 00:00:31
  TRACK 03 AUDIO
    TITLE "0:"
    INDEX 01 00:04:60
  TRACK 04 AUDIO
    TITLE "5:cjc083_1908"
    INDEX 01 00:05:26
  TRACK 05 AUDIO
    TITLE "0:"
    INDEX 01 00:06:43
  TRACK 06 AUDIO
    TITLE "6:cjc083_1909"
    INDEX 01 00:07:17
  TRACK 07 AUDIO
    TITLE "0:"
    INDEX 01 00:08:62
  TRACK 08 AUDIO
    TITLE "5:cjc083_1910"
    INDEX 01 00:09:36
  TRACK 09 AUDIO
    TITLE "0:"
    INDEX 01 00:10:59
  TRACK 10 AUDIO
    TITLE "6:cjc083_1911"
    INDEX 01 00:11:35
  TRACK 11 AUDIO
    TITLE "0:"
    INDEX 01 00:12:42
  TRACK 12 AUDIO
    TITLE "5:cjc083_1912"
    INDEX 01 00:13:16
  TRACK 13 AUDIO
    TITLE "0:"
    INDEX 01 00:14:41
  TRACK 14 AUDIO
    TITLE "6:cjc083_1913"
    INDEX 01 00:15:07
  TRACK 15 AUDIO
    TITLE "0:"
    INDEX 01 00:16:18
  TRACK 16 AUDIO
    TITLE "5:cjc083_1914"
    INDEX 01 00:16:55
  TRACK 17 AUDIO
    TITLE "0:"
    INDEX 01 00:18:25
  TRACK 18 AUDIO
    TITLE "6:cjc083_1915"
    INDEX 01 00:18:64
  TRACK 19 AUDIO
    TITLE "0:"
    INDEX 01 00:20:73
  TRACK 20 AUDIO
    TITLE "5:cjc083_1916"
    INDEX 01 00:21:39
  TRACK 21 AUDIO
    TITLE "0:"
    INDEX 01 00:22:60
  TRACK 22 AUDIO
    TITLE "6:cjc083_1917"
    INDEX 01 00:23:28
  TRACK 23 AUDIO
    TITLE "0:"
    INDEX 01 00:24:63
  TRACK 24 AUDIO
    TITLE "5:cjc083_1918"
    INDEX 01 00:25:27
  TRACK 25 AUDIO
    TITLE "0:"
    INDEX 01 00:26:71
  TRACK 26 AUDIO
    TITLE "6:cjc083_1919"
    INDEX 01 00:27:38
  TRACK 27 AUDIO
    TITLE "0:"
    INDEX 01 00:29:33
  TRACK 28 AUDIO
    TITLE "5:cjc083_1920"
    INDEX 01 00:29:74
  TRACK 29 AUDIO
    TITLE "0:"
    INDEX 01 00:31:08
  TRACK 30 AUDIO
    TITLE "6:cjc083_1921"
    INDEX 01 00:31:53
  TRACK 31 AUDIO
    TITLE "0:"
    INDEX 01 00:33:13
  TRACK 32 AUDIO
    TITLE "5:cjc083_1922"
    INDEX 01 00:33:52
  TRACK 33 AUDIO
    TITLE "0:"
    INDEX 01 00:35:02
  TRACK 34 AUDIO
    TITLE "6:cjc083_1923"
    INDEX 01 00:35:43
  TRACK 35 AUDIO
    TITLE "0:"
    INDEX 01 00:36:50
  TRACK 36 AUDIO
    TITLE "5:cjc083_1924"
    INDEX 01 00:37:16
  TRACK 37 AUDIO
    TITLE "0:"
    INDEX 01 00:38:26
  TRACK 38 AUDIO
    TITLE "6:cjc083_1925"
    INDEX 01 00:38:71
  TRACK 39 AUDIO
    TITLE "0:"
    INDEX 01 00:39:58
  TRACK 40 AUDIO
    TITLE "5:cjc083_1926"
    INDEX 01 00:40:36
  TRACK 41 AUDIO
    TITLE "0:"
    INDEX 01 00:41:63
  TRACK 42 AUDIO
    TITLE "6:cjc083_1927"
    INDEX 01 00:42:31
  TRACK 43 AUDIO
    TITLE "0:"
    INDEX 01 00:44:05
  TRACK 44 AUDIO
    TITLE "5:cjc083_1928"
    INDEX 01 00:44:46
  TRACK 45 AUDIO
    TITLE "0:"
    INDEX 01 00:46:07
  TRACK 46 AUDIO
    TITLE "6:cjc083_1929"
    INDEX 01 00:46:47
  TRACK 47 AUDIO
    TITLE "0:"
    INDEX 01 00:47:72
  TRACK 48 AUDIO
    TITLE "5:cjc083_1930"
    INDEX 01 00:48:44
  TRACK 49 AUDIO
    TITLE "0:"
    INDEX 01 00:50:05
  TRACK 50 AUDIO
    TITLE "6:cjc083_1931"
    INDEX 01 00:50:44
  TRACK 51 AUDIO
    TITLE "0:"
    INDEX 01 00:51:63
  TRACK 52 AUDIO
    TITLE "5:cjc083_1932"
    INDEX 01 00:52:32
  TRACK 53 AUDIO
    TITLE "0:"
    INDEX 01 00:53:39
  TRACK 54 AUDIO
    TITLE "6:cjc083_1933"
    INDEX 01 00:54:09
  TRACK 55 AUDIO
    TITLE "0:"
    INDEX 01 00:55:59
  TRACK 56 AUDIO
    TITLE "5:cjc083_1934"
    INDEX 01 00:56:25
  TRACK 57 AUDIO
    TITLE "0:"
    INDEX 01 00:57:33
  TRACK 58 AUDIO
    TITLE "6:cjc083_1935"
    INDEX 01 00:58:05
  TRACK 59 AUDIO
    TITLE "0:"
    INDEX 01 00:59:28
  TRACK 60 AUDIO
    TITLE "5:cjc083_1936"
    INDEX 01 01:00:00
  TRACK 61 AUDIO
    TITLE "0:"
    INDEX 01 01:01:11
  TRACK 62 AUDIO
    TITLE "6:cjc083_1937"
    INDEX 01 01:01:56
  TRACK 63 AUDIO
    TITLE "0:"
    INDEX 01 01:03:02
  TRACK 64 AUDIO
    TITLE "5:cjc083_1938"
    INDEX 01 01:03:47
  TRACK 65 AUDIO
    TITLE "0:"
    INDEX 01 01:04:68
  TRACK 66 AUDIO
    TITLE "6:cjc083_1939"
    INDEX 01 01:05:38
  TRACK 67 AUDIO
    TITLE "0:"
    INDEX 01 01:06:59
  TRACK 68 AUDIO
    TITLE "5:cjc083_1940"
    INDEX 01 01:07:27
  TRACK 69 AUDIO
    TITLE "0:"
    INDEX 01 01:08:46
  TRACK 70 AUDIO
    TITLE "6:cjc083_1941"
    INDEX 01 01:09:16
  TRACK 71 AUDIO
    TITLE "0:"
    INDEX 01 01:10:24
  TRACK 72 AUDIO
    TITLE "5:cjc083_1942"
    INDEX 01 01:11:02
  TRACK 73 AUDIO
    TITLE "0:"
    INDEX 01 01:12:23
  TRACK 74 AUDIO
    TITLE "6:cjc083_1943"
    INDEX 01 01:12:64
  TRACK 75 AUDIO
    TITLE "0:"
    INDEX 01 01:13:73
  TRACK 76 AUDIO
    TITLE "5:cjc083_1944"
    INDEX 01 01:14:39
  TRACK 77 AUDIO
    TITLE "0:"
    INDEX 01 01:15:66
  TRACK 78 AUDIO
    TITLE "6:cjc083_1945"
    INDEX 01 01:16:32
  TRACK 79 AUDIO
    TITLE "0:"
    INDEX 01 01:19:27
  TRACK 80 AUDIO
    TITLE "7:cjc083_1946"
    INDEX 01 01:20:63
  TRACK 81 AUDIO
    TITLE "0:"
    INDEX 01 01:31:41
